<svg width="32" height="32" viewBox="0 0 32 32" fill="none" xmlns="http://www.w3.org/2000/svg">
<g clip-path="url(#clip0_1912_600)">
<circle cx="16" cy="16" r="16" fill="white"/>
<g clip-path="url(#clip1_1912_600)">
<path fill-rule="evenodd" clip-rule="evenodd" d="M26.7049 25.3992C24.5386 27.8454 21.5936 29.4681 18.3684 29.9924C15.1431 30.5168 11.8358 29.9107 9.00607 28.2768C6.17589 26.643 3.99697 24.0816 2.83804 21.0261C1.67911 17.9706 1.61135 14.6086 2.64614 11.5089L26.7049 25.3992Z" fill="#FFA0B5"/>
<path fill-rule="evenodd" clip-rule="evenodd" d="M29.5402 11.51C30.5755 14.6093 30.5083 17.971 29.3498 21.0263C28.1913 24.0816 26.0127 26.6428 23.1828 28.2765C20.3528 29.9106 17.0452 30.5169 13.8196 29.9928C10.594 29.4687 7.64849 27.8464 5.48143 25.4004L29.5402 11.51Z" fill="#FFA0B5"/>
<path fill-rule="evenodd" clip-rule="evenodd" d="M16.0969 19.2729L26.7089 25.3995C25.3803 26.9001 23.7484 28.1018 21.9211 28.9252C20.0937 29.7486 18.1125 30.1749 16.1083 30.1761H16.0856C14.0813 30.1756 12.0999 29.7495 10.2726 28.9261C8.44519 28.1027 6.81348 26.9007 5.48535 25.3995L16.0969 19.2729Z" fill="#FF2052"/>
<path fill-rule="evenodd" clip-rule="evenodd" d="M16.0995 1.36572C18.9938 1.36572 21.8232 2.224 24.2298 3.83202C26.6363 5.44004 28.512 7.72558 29.6197 10.3996C30.7273 13.0737 31.0171 16.0161 30.4524 18.8549C29.8878 21.6936 28.494 24.3011 26.4474 26.3478C24.4007 28.3944 21.7932 29.7882 18.9545 30.3528C16.1157 30.9175 13.1733 30.6277 10.4992 29.5201C7.82518 28.4124 5.53965 26.5367 3.93163 24.1302C2.32361 21.7236 1.46533 18.8942 1.46533 15.9999C1.46727 12.1192 3.00969 8.39812 5.75371 5.65411C8.49772 2.91009 12.2189 1.36766 16.0995 1.36572V1.36572ZM16.0995 2.82914C18.7044 2.82914 21.2508 3.60158 23.4167 5.0488C25.5826 6.49602 27.2708 8.55301 28.2676 10.9596C29.2645 13.3663 29.5253 16.0145 29.0171 18.5694C28.5089 21.1242 27.2545 23.471 25.4126 25.313C23.5706 27.1549 21.2238 28.4093 18.669 28.9175C16.1141 29.4257 13.4659 29.1649 11.0593 28.168C8.65262 27.1712 6.59563 25.483 5.14841 23.3171C3.70119 21.1512 2.92875 18.6048 2.92875 15.9999C2.93039 12.5073 4.31855 9.15821 6.78819 6.68858C9.25782 4.21894 12.6069 2.83079 16.0995 2.82914V2.82914Z" fill="#FF2052"/>
</g>
</g>
<defs>
<clipPath id="clip0_1912_600">
<rect width="32" height="32" fill="white"/>
</clipPath>
<clipPath id="clip1_1912_600">
<rect width="30" height="30" fill="white" transform="translate(1 1)"/>
</clipPath>
</defs>
</svg>
